<svg id="Capa_1" data-name="Capa 1" xmlns="http://www.w3.org/2000/svg" viewBox="0 0 291 512.03"><defs><style>.cls-1{fill:#545454;}</style></defs><title>drop-down-black</title><g id="_Group_" data-name=" Group "><path id="_Path_" data-name=" Path " class="cls-1" d="M26,227.59H264.93a26.05,26.05,0,0,0,21.5-40.78L165.49,10.14A23.29,23.29,0,0,0,127.14,10L4.64,186.7A26,26,0,0,0,26,227.59Z" transform="translate(0 0)"/><path id="_Path_2" data-name=" Path 2" class="cls-1" d="M264.93,284.41H26A26,26,0,0,0,4.64,325.3L127.14,502a23.29,23.29,0,0,0,38.37-.12l120.91-176.7a26.05,26.05,0,0,0-21.5-40.77Z" transform="translate(0 0)"/></g></svg>
