<svg id="Capa_1" data-name="Capa 1" xmlns="http://www.w3.org/2000/svg" viewBox="0 0 290.98 512"><defs><style>.cls-1{fill:#d3d3d3;}</style></defs><title>drop-down</title><g id="_Group_" data-name="&lt;Group&gt;"><path id="_Path_" data-name="&lt;Path&gt;" class="cls-1" d="M136.56,227.59H375.44a26.05,26.05,0,0,0,21.5-40.78L276,10.14A23.29,23.29,0,0,0,237.65,10L115.15,186.7a26.05,26.05,0,0,0,21.41,40.89Z" transform="translate(-110.51 0)"/><path id="_Path_2" data-name="&lt;Path&gt;" class="cls-1" d="M375.44,284.41H136.56a26.05,26.05,0,0,0-21.41,40.89L237.65,502a23.29,23.29,0,0,0,38.37-.12L396.93,325.18a26.05,26.05,0,0,0-21.5-40.77Z" transform="translate(-110.51 0)"/></g></svg>
