<svg id="Layer_1" data-name="Layer 1" xmlns="http://www.w3.org/2000/svg" viewBox="0 0 304.3 52"><defs><style>.cls-1{isolation:isolate;}.cls-2{fill:#fff;}</style></defs><title>LEGEND-logo-white</title><g class="cls-1"><path class="cls-2" d="M2,2.3H13.7V43.2H39v9.5H2Z" transform="translate(-2 -1.6)"/><path class="cls-2" d="M84.5,43.3v9.4h-39V2.3H83.6v9.4H57.1V22.6H80.5v9.1H57.1V43.4l27.4-.1Z" transform="translate(-2 -1.6)"/><path class="cls-2" d="M127.7,26.7h10.7V47.1a31.43,31.43,0,0,1-9.5,4.8A34,34,0,0,1,118,53.6a29.92,29.92,0,0,1-14.1-3.3A23.77,23.77,0,0,1,94.1,41a25.37,25.37,0,0,1-3.6-13.4A25.09,25.09,0,0,1,104,4.9a30.45,30.45,0,0,1,14.3-3.3,30.91,30.91,0,0,1,12,2.2,23.77,23.77,0,0,1,9.1,6.5l-7.5,6.9a17.22,17.22,0,0,0-13-5.7,18.49,18.49,0,0,0-8.6,2,13.85,13.85,0,0,0-5.8,5.7,16.63,16.63,0,0,0-2.1,8.4,16.89,16.89,0,0,0,2.1,8.4,14.46,14.46,0,0,0,5.8,5.7,17,17,0,0,0,8.5,2.1,18.3,18.3,0,0,0,9.1-2.2V26.7Z" transform="translate(-2 -1.6)"/><path class="cls-2" d="M188.2,43.3v9.4h-39V2.3h38.1v9.4H160.8V22.6h23.4v9.1H160.8V43.4l27.4-.1Z" transform="translate(-2 -1.6)"/><path class="cls-2" d="M243.7,2.3V52.7h-9.6L209,22.1V52.7H197.5V2.3h9.6l25.1,30.6V2.3Z" transform="translate(-2 -1.6)"/><path class="cls-2" d="M255.6,2.3h22.9A31.9,31.9,0,0,1,293,5.4a23.29,23.29,0,0,1,9.8,8.8,25,25,0,0,1,3.5,13.2,24.77,24.77,0,0,1-3.5,13.2,23.29,23.29,0,0,1-9.8,8.8,31.9,31.9,0,0,1-14.5,3.1H255.6Zm22.3,40.8c5,0,9.1-1.4,12.1-4.2s4.5-6.6,4.5-11.4S293,18.9,290,16.1s-7-4.2-12.1-4.2H267.2V43.1Z" transform="translate(-2 -1.6)"/></g></svg>
