<?xml version="1.0" encoding="utf-8"?>
<!-- Generator: Adobe Illustrator 21.0.0, SVG Export Plug-In . SVG Version: 6.00 Build 0)  -->
<svg version="1.1" id="Layer_1" xmlns="http://www.w3.org/2000/svg" xmlns:xlink="http://www.w3.org/1999/xlink" x="0px" y="0px"
	 viewBox="0 0 307.8 54.3" style="enable-background:new 0 0 307.8 54.3;" xml:space="preserve">
<style type="text/css">
	.st0{enable-background:new    ;}
</style>
<g class="st0">
	<path d="M2,2.3h11.7v40.9h25.3v9.5H2V2.3z"/>
	<path d="M84.5,43.3v9.4h-39V2.3h38.1v9.4H57.1v10.9h23.4v9.1H57.1v11.7H84.5z"/>
	<path d="M127.7,26.7h10.7v20.4c-2.7,2.1-5.9,3.6-9.5,4.8s-7.2,1.7-10.9,1.7c-5.2,0-9.9-1.1-14.1-3.3c-4.2-2.2-7.5-5.3-9.8-9.3
		c-2.4-4-3.6-8.4-3.6-13.4c0-5,1.2-9.5,3.6-13.4s5.7-7.1,9.9-9.3c4.2-2.2,9-3.3,14.3-3.3c4.4,0,8.4,0.7,12,2.2
		c3.6,1.5,6.6,3.6,9.1,6.5l-7.5,6.9c-3.6-3.8-7.9-5.7-13-5.7c-3.2,0-6.1,0.7-8.6,2c-2.5,1.3-4.4,3.2-5.8,5.7
		c-1.4,2.4-2.1,5.3-2.1,8.4c0,3.1,0.7,5.9,2.1,8.4c1.4,2.4,3.3,4.4,5.8,5.7c2.5,1.4,5.3,2.1,8.5,2.1c3.4,0,6.4-0.7,9.1-2.2V26.7z"/>
	<path d="M188.2,43.3v9.4h-39V2.3h38.1v9.4h-26.5v10.9h23.4v9.1h-23.4v11.7H188.2z"/>
	<path d="M243.7,2.3v50.4h-9.6L209,22.1v30.6h-11.5V2.3h9.6l25.1,30.6V2.3H243.7z"/>
	<path d="M255.6,2.3h22.9c5.5,0,10.3,1,14.5,3.1c4.2,2.1,7.5,5,9.8,8.8c2.3,3.8,3.5,8.2,3.5,13.2s-1.2,9.5-3.5,13.2
		c-2.3,3.8-5.6,6.7-9.8,8.8s-9,3.1-14.5,3.1h-22.9V2.3z M277.9,43.1c5,0,9.1-1.4,12.1-4.2c3-2.8,4.5-6.6,4.5-11.4
		c0-4.8-1.5-8.6-4.5-11.4c-3-2.8-7-4.2-12.1-4.2h-10.7v31.2H277.9z"/>
</g>
</svg>
